<svg xmlns="http://www.w3.org/2000/svg" width="70" height="70" viewBox="0 0 70 70">
  <g id="Gruppe_35" data-name="Gruppe 35" transform="translate(-4938 -2400)">
    <path id="Vereinigungsmenge_2" data-name="Vereinigungsmenge 2" d="M3.377,67.25A35.118,35.118,0,0,1-15.25,48.623a34.972,34.972,0,0,1,7.5-38.372,35.02,35.02,0,0,1,57,11.126,34.972,34.972,0,0,1-7.5,38.372,35.039,35.039,0,0,1-38.372,7.5ZM5.323,7.358a30,30,0,1,0,39.319,39.32A29.99,29.99,0,0,0,17,5,29.814,29.814,0,0,0,5.323,7.358ZM15,53.5v-16H-1A2.5,2.5,0,0,1-3.5,35,2.5,2.5,0,0,1-1,32.5H15v-15a2.5,2.5,0,0,1,5,0v15H35a2.5,2.5,0,1,1,0,5H20v16a2.5,2.5,0,1,1-5,0Z" transform="translate(4956 2400)" fill="#fff"/>
  </g>
</svg>
