<svg xmlns="http://www.w3.org/2000/svg" width="31.745" height="31.745" viewBox="0 0 31.745 31.745">
  <g id="Forward" transform="translate(-1036 -925.98)">
    <rect id="Rechteck_3" data-name="Rechteck 3" width="31.745" height="31.745" transform="translate(1036 925.98)" fill="none"/>
    <g id="Gruppe_2" data-name="Gruppe 2" transform="translate(1041.291 928.626)">
      <path id="Pfad_2" data-name="Pfad 2" d="M22.47,2a2.605,2.605,0,0,0-2.6,2.645v8.231L8.414,3.1A2.679,2.679,0,0,0,4,5.1V25.35a2.679,2.679,0,0,0,4.414,2.008l11.459-9.78v8.231a2.605,2.605,0,0,0,2.6,2.645,2.687,2.687,0,0,0,2.693-2.645V4.645A2.687,2.687,0,0,0,22.47,2Z" transform="translate(-4 -2)" fill="#fff"/>
    </g>
  </g>
</svg>
